# xmcd
#
# Track frame offsets:
#  150
#  19362
#  39772
#  54140
#  73862
#  88050
#  103747
#  118120
#  130350
#  143337
#  158012
#  173437
#  192512
#  207477
#  221817
#  231550
#  246845
#  261082
#  275817
#  290685
#
# Disc length: 4079 seconds
#
# Revision: 0
# Processed by: cddbd v1.5.1PL2 Copyright (c) Steve Scherf et al.
# Submitted via: Collectorz.com_Music_Collector 6.10
#
DISCID=340fed14
DTITLE=Various Artist - Country Classics Vol. 2
DYEAR=1997
DGENRE=Country
TTITLE0=Tanya Tucker - Delta Dawn
TTITLE1=The Nitty Gritty Dirt Band - Mr. Bojangles
TTITLE2=Kathy Mattea - Heart of the Country
TTITLE3=Bellamy Brothers - If I Said You Had a Beautiful Body
TTITLE4=Freddy Fender - Mexican Rose
TTITLE5=Johnny Rodriguez - North of the Border
TTITLE6=George Jones - Who's Gonna Fill Their Shoes
TTITLE7=Patty Loveless - Lonely Days, Lonely Nights
TTITLE8=Dave and Sugar - The Door Is Always Open
TTITLE9=Eddie Raven - Who Do You Know in Calfiornia
TTITLE10=Razzy Bailey - Midnight Hauler
TTITLE11=Bertie Higgins - Key Largo
TTITLE12=Gene Watson - Carmen
TTITLE13=Sweethearts Of The Rodeo - Chains of Gold
TTITLE14=Leroy Van Dyke - The Auctioneer
TTITLE15=Tom T. Hall - I Like Beer
TTITLE16=Earl Thomas Conley - Love Don't Care
TTITLE17=Lorrie Morgan - Please Mr. Please
TTITLE18=Jeanie C. Riley - Harper Valley P.T.A.
TTITLE19=Merle Haggard - Okie from Muskogee
EXTD=
EXTT0=
EXTT1=
EXTT2=
EXTT3=
EXTT4=
EXTT5=
EXTT6=
EXTT7=
EXTT8=
EXTT9=
EXTT10=
EXTT11=
EXTT12=
EXTT13=
EXTT14=
EXTT15=
EXTT16=
EXTT17=
EXTT18=
EXTT19=
PLAYORDER=
